<mxfile host="app.diagrams.net" agent="Mozilla/5.0 (Windows NT 10.0; Win64; x64) AppleWebKit/537.36 (KHTML, like Gecko) Chrome/135.0.0.0 Safari/537.36" version="26.2.13">
  <diagram name="페이지-1" id="GQ-tCCjJTIzo3Opnk_Zn">
    <mxGraphModel dx="1428" dy="777" grid="1" gridSize="10" guides="1" tooltips="1" connect="1" arrows="1" fold="1" page="1" pageScale="1" pageWidth="827" pageHeight="1169" math="0" shadow="0">
      <root>
        <mxCell id="0" />
        <mxCell id="1" parent="0" />
        <mxCell id="nSttxIIMll4KHx_Wchx--1" style="edgeStyle=orthogonalEdgeStyle;rounded=0;orthogonalLoop=1;jettySize=auto;html=1;" edge="1" parent="1" source="nSttxIIMll4KHx_Wchx--2" target="nSttxIIMll4KHx_Wchx--6">
          <mxGeometry relative="1" as="geometry">
            <Array as="points">
              <mxPoint x="160" y="120" />
              <mxPoint x="160" y="120" />
            </Array>
          </mxGeometry>
        </mxCell>
        <mxCell id="nSttxIIMll4KHx_Wchx--2" value="USER" style="rounded=0;whiteSpace=wrap;html=1;" vertex="1" parent="1">
          <mxGeometry x="40" y="80" width="80" height="800" as="geometry" />
        </mxCell>
        <mxCell id="nSttxIIMll4KHx_Wchx--3" value="Actor" style="shape=umlActor;verticalLabelPosition=bottom;verticalAlign=top;html=1;outlineConnect=0;" vertex="1" parent="1">
          <mxGeometry x="60" width="30" height="60" as="geometry" />
        </mxCell>
        <mxCell id="nSttxIIMll4KHx_Wchx--4" style="edgeStyle=orthogonalEdgeStyle;rounded=0;orthogonalLoop=1;jettySize=auto;html=1;" edge="1" parent="1" source="nSttxIIMll4KHx_Wchx--6" target="nSttxIIMll4KHx_Wchx--2">
          <mxGeometry relative="1" as="geometry">
            <Array as="points">
              <mxPoint x="150" y="170" />
              <mxPoint x="150" y="170" />
            </Array>
          </mxGeometry>
        </mxCell>
        <mxCell id="nSttxIIMll4KHx_Wchx--5" style="edgeStyle=orthogonalEdgeStyle;rounded=0;orthogonalLoop=1;jettySize=auto;html=1;" edge="1" parent="1" source="nSttxIIMll4KHx_Wchx--6" target="nSttxIIMll4KHx_Wchx--2">
          <mxGeometry relative="1" as="geometry">
            <Array as="points">
              <mxPoint x="170" y="830" />
              <mxPoint x="170" y="830" />
            </Array>
          </mxGeometry>
        </mxCell>
        <mxCell id="nSttxIIMll4KHx_Wchx--6" value="Front Web Page" style="rounded=0;whiteSpace=wrap;html=1;" vertex="1" parent="1">
          <mxGeometry x="200" y="80" width="80" height="800" as="geometry" />
        </mxCell>
        <mxCell id="nSttxIIMll4KHx_Wchx--7" style="edgeStyle=orthogonalEdgeStyle;rounded=0;orthogonalLoop=1;jettySize=auto;html=1;" edge="1" parent="1" source="nSttxIIMll4KHx_Wchx--29" target="nSttxIIMll4KHx_Wchx--11">
          <mxGeometry relative="1" as="geometry">
            <Array as="points">
              <mxPoint x="460" y="430" />
              <mxPoint x="460" y="430" />
            </Array>
          </mxGeometry>
        </mxCell>
        <mxCell id="nSttxIIMll4KHx_Wchx--8" style="edgeStyle=orthogonalEdgeStyle;rounded=0;orthogonalLoop=1;jettySize=auto;html=1;" edge="1" parent="1">
          <mxGeometry relative="1" as="geometry">
            <mxPoint x="520" y="370.0000000000001" as="sourcePoint" />
            <mxPoint x="440" y="370.0000000000001" as="targetPoint" />
            <Array as="points">
              <mxPoint x="480" y="370" />
              <mxPoint x="480" y="370" />
            </Array>
          </mxGeometry>
        </mxCell>
        <mxCell id="nSttxIIMll4KHx_Wchx--9" style="edgeStyle=orthogonalEdgeStyle;rounded=0;orthogonalLoop=1;jettySize=auto;html=1;" edge="1" parent="1" source="nSttxIIMll4KHx_Wchx--11" target="nSttxIIMll4KHx_Wchx--29">
          <mxGeometry relative="1" as="geometry">
            <Array as="points">
              <mxPoint x="490" y="490" />
              <mxPoint x="490" y="490" />
            </Array>
          </mxGeometry>
        </mxCell>
        <mxCell id="nSttxIIMll4KHx_Wchx--10" style="edgeStyle=orthogonalEdgeStyle;rounded=0;orthogonalLoop=1;jettySize=auto;html=1;" edge="1" parent="1" source="nSttxIIMll4KHx_Wchx--11" target="nSttxIIMll4KHx_Wchx--12">
          <mxGeometry relative="1" as="geometry">
            <Array as="points">
              <mxPoint x="640" y="690" />
              <mxPoint x="640" y="690" />
            </Array>
          </mxGeometry>
        </mxCell>
        <mxCell id="nSttxIIMll4KHx_Wchx--11" value="BACKEND SERVER" style="rounded=0;whiteSpace=wrap;html=1;" vertex="1" parent="1">
          <mxGeometry x="520" y="80" width="80" height="800" as="geometry" />
        </mxCell>
        <mxCell id="nSttxIIMll4KHx_Wchx--12" value="ES SERVER" style="rounded=0;whiteSpace=wrap;html=1;" vertex="1" parent="1">
          <mxGeometry x="680" y="80" width="80" height="800" as="geometry" />
        </mxCell>
        <mxCell id="nSttxIIMll4KHx_Wchx--13" value="&lt;font style=&quot;font-size: 10px;&quot;&gt;로그인 요청&lt;/font&gt;" style="text;html=1;align=center;verticalAlign=middle;whiteSpace=wrap;rounded=0;fillColor=#60a917;fontColor=#ffffff;strokeColor=#2D7600;" vertex="1" parent="1">
          <mxGeometry x="120" y="80" width="80" height="30" as="geometry" />
        </mxCell>
        <mxCell id="nSttxIIMll4KHx_Wchx--14" value="&lt;font style=&quot;font-size: 10px;&quot;&gt;SSO 로그인 요청&lt;/font&gt;" style="text;html=1;align=center;verticalAlign=middle;whiteSpace=wrap;rounded=0;fillColor=#60a917;strokeColor=#2D7600;fontColor=#ffffff;" vertex="1" parent="1">
          <mxGeometry x="120" y="130" width="80" height="30" as="geometry" />
        </mxCell>
        <mxCell id="nSttxIIMll4KHx_Wchx--15" style="edgeStyle=orthogonalEdgeStyle;rounded=0;orthogonalLoop=1;jettySize=auto;html=1;exitX=0.5;exitY=1;exitDx=0;exitDy=0;" edge="1" parent="1" source="nSttxIIMll4KHx_Wchx--14" target="nSttxIIMll4KHx_Wchx--14">
          <mxGeometry relative="1" as="geometry" />
        </mxCell>
        <mxCell id="nSttxIIMll4KHx_Wchx--16" value="&lt;span style=&quot;font-size: 10px;&quot;&gt;SSO 로그인 수행&lt;/span&gt;" style="text;html=1;align=center;verticalAlign=middle;whiteSpace=wrap;rounded=0;fillColor=#60a917;fontColor=#ffffff;strokeColor=#2D7600;" vertex="1" parent="1">
          <mxGeometry x="280" y="150" width="80" height="30" as="geometry" />
        </mxCell>
        <mxCell id="nSttxIIMll4KHx_Wchx--17" value="&lt;span style=&quot;font-size: 10px;&quot;&gt;인가 코드 반환&lt;/span&gt;" style="text;html=1;align=center;verticalAlign=middle;whiteSpace=wrap;rounded=0;fillColor=#fa6800;fontColor=#000000;strokeColor=#C73500;" vertex="1" parent="1">
          <mxGeometry x="280" y="210" width="80" height="30" as="geometry" />
        </mxCell>
        <mxCell id="nSttxIIMll4KHx_Wchx--18" value="&lt;span style=&quot;font-size: 10px;&quot;&gt;인가 코드 전송&lt;/span&gt;" style="text;html=1;align=center;verticalAlign=middle;whiteSpace=wrap;rounded=0;fillColor=#1ba1e2;fontColor=#ffffff;strokeColor=#006EAF;" vertex="1" parent="1">
          <mxGeometry x="440" y="265" width="80" height="30" as="geometry" />
        </mxCell>
        <mxCell id="nSttxIIMll4KHx_Wchx--19" value="&lt;span style=&quot;font-size: 10px;&quot;&gt;인가 코드 전송&lt;/span&gt;" style="text;html=1;align=center;verticalAlign=middle;whiteSpace=wrap;rounded=0;fillColor=#60a917;fontColor=#ffffff;strokeColor=#2D7600;" vertex="1" parent="1">
          <mxGeometry x="440" y="320" width="80" height="30" as="geometry" />
        </mxCell>
        <mxCell id="nSttxIIMll4KHx_Wchx--20" value="&lt;span style=&quot;font-size: 10px;&quot;&gt;인증 코드 콜백&lt;/span&gt;" style="text;html=1;align=center;verticalAlign=middle;whiteSpace=wrap;rounded=0;fillColor=#fa6800;fontColor=#000000;strokeColor=#C73500;" vertex="1" parent="1">
          <mxGeometry x="440" y="390" width="80" height="30" as="geometry" />
        </mxCell>
        <mxCell id="nSttxIIMll4KHx_Wchx--21" value="&lt;span style=&quot;font-size: 10px;&quot;&gt;유저 정보 요청&lt;/span&gt;" style="text;html=1;align=center;verticalAlign=middle;whiteSpace=wrap;rounded=0;fillColor=#60a917;fontColor=#ffffff;strokeColor=#2D7600;" vertex="1" parent="1">
          <mxGeometry x="440" y="450" width="80" height="30" as="geometry" />
        </mxCell>
        <mxCell id="nSttxIIMll4KHx_Wchx--22" value="&lt;span style=&quot;font-size: 10px;&quot;&gt;유저 정보 콜백&lt;/span&gt;" style="text;html=1;align=center;verticalAlign=middle;whiteSpace=wrap;rounded=0;fillColor=#fa6800;fontColor=#000000;strokeColor=#C73500;" vertex="1" parent="1">
          <mxGeometry x="440" y="500" width="80" height="30" as="geometry" />
        </mxCell>
        <mxCell id="nSttxIIMll4KHx_Wchx--23" value="&lt;span style=&quot;font-size: 10px;&quot;&gt;유저 로그인 요청&lt;br&gt;&lt;/span&gt;" style="text;html=1;align=center;verticalAlign=middle;whiteSpace=wrap;rounded=0;fillColor=#60a917;fontColor=#ffffff;strokeColor=#2D7600;" vertex="1" parent="1">
          <mxGeometry x="600" y="650" width="80" height="30" as="geometry" />
        </mxCell>
        <mxCell id="nSttxIIMll4KHx_Wchx--24" value="&lt;font style=&quot;font-size: 10px;&quot;&gt;Access/Refresh&amp;nbsp; Token 생성&amp;nbsp;&lt;/font&gt;" style="text;html=1;align=center;verticalAlign=middle;whiteSpace=wrap;rounded=0;fillColor=#1ba1e2;fontColor=#ffffff;strokeColor=#006EAF;" vertex="1" parent="1">
          <mxGeometry x="600" y="570" width="80" height="30" as="geometry" />
        </mxCell>
        <mxCell id="nSttxIIMll4KHx_Wchx--25" value="&lt;span style=&quot;font-size: 10px;&quot;&gt;Token 반환&lt;/span&gt;" style="text;html=1;align=center;verticalAlign=middle;whiteSpace=wrap;rounded=0;fillColor=#fa6800;fontColor=#000000;strokeColor=#C73500;" vertex="1" parent="1">
          <mxGeometry x="280" y="730" width="80" height="30" as="geometry" />
        </mxCell>
        <mxCell id="nSttxIIMll4KHx_Wchx--26" value="&lt;span style=&quot;font-size: 10px;&quot;&gt;로그인 완료&lt;/span&gt;" style="text;html=1;align=center;verticalAlign=middle;whiteSpace=wrap;rounded=0;fillColor=#fa6800;fontColor=#000000;strokeColor=#C73500;" vertex="1" parent="1">
          <mxGeometry x="120" y="770" width="80" height="30" as="geometry" />
        </mxCell>
        <mxCell id="nSttxIIMll4KHx_Wchx--27" style="edgeStyle=orthogonalEdgeStyle;rounded=0;orthogonalLoop=1;jettySize=auto;html=1;" edge="1" parent="1" source="nSttxIIMll4KHx_Wchx--29" target="nSttxIIMll4KHx_Wchx--6">
          <mxGeometry relative="1" as="geometry">
            <Array as="points">
              <mxPoint x="320" y="260" />
              <mxPoint x="320" y="260" />
            </Array>
          </mxGeometry>
        </mxCell>
        <mxCell id="nSttxIIMll4KHx_Wchx--28" style="edgeStyle=orthogonalEdgeStyle;rounded=0;orthogonalLoop=1;jettySize=auto;html=1;" edge="1" parent="1" source="nSttxIIMll4KHx_Wchx--29" target="nSttxIIMll4KHx_Wchx--11">
          <mxGeometry relative="1" as="geometry">
            <Array as="points">
              <mxPoint x="480" y="550" />
              <mxPoint x="480" y="550" />
            </Array>
          </mxGeometry>
        </mxCell>
        <mxCell id="nSttxIIMll4KHx_Wchx--29" value="SSO SITE" style="rounded=0;whiteSpace=wrap;html=1;" vertex="1" parent="1">
          <mxGeometry x="360" y="80" width="80" height="800" as="geometry" />
        </mxCell>
        <mxCell id="nSttxIIMll4KHx_Wchx--30" style="edgeStyle=orthogonalEdgeStyle;rounded=0;orthogonalLoop=1;jettySize=auto;html=1;fillColor=#a20025;strokeColor=#6F0000;" edge="1" parent="1">
          <mxGeometry relative="1" as="geometry">
            <mxPoint x="120" y="199.9999999999999" as="sourcePoint" />
            <mxPoint x="360" y="200.0000000000001" as="targetPoint" />
            <Array as="points">
              <mxPoint x="310" y="200" />
              <mxPoint x="310" y="200" />
            </Array>
          </mxGeometry>
        </mxCell>
        <mxCell id="nSttxIIMll4KHx_Wchx--31" style="edgeStyle=orthogonalEdgeStyle;rounded=0;orthogonalLoop=1;jettySize=auto;html=1;fillColor=#a20025;strokeColor=#6F0000;" edge="1" parent="1" source="nSttxIIMll4KHx_Wchx--6" target="nSttxIIMll4KHx_Wchx--11">
          <mxGeometry relative="1" as="geometry">
            <Array as="points">
              <mxPoint x="400" y="300" />
              <mxPoint x="400" y="300" />
            </Array>
          </mxGeometry>
        </mxCell>
        <mxCell id="nSttxIIMll4KHx_Wchx--32" style="edgeStyle=orthogonalEdgeStyle;rounded=0;orthogonalLoop=1;jettySize=auto;html=1;" edge="1" parent="1" source="nSttxIIMll4KHx_Wchx--11" target="nSttxIIMll4KHx_Wchx--11">
          <mxGeometry relative="1" as="geometry" />
        </mxCell>
        <mxCell id="nSttxIIMll4KHx_Wchx--33" style="edgeStyle=orthogonalEdgeStyle;rounded=0;orthogonalLoop=1;jettySize=auto;html=1;fillColor=#a20025;strokeColor=#6F0000;" edge="1" parent="1" source="nSttxIIMll4KHx_Wchx--11" target="nSttxIIMll4KHx_Wchx--6">
          <mxGeometry relative="1" as="geometry">
            <Array as="points">
              <mxPoint x="400" y="790" />
              <mxPoint x="400" y="790" />
            </Array>
          </mxGeometry>
        </mxCell>
      </root>
    </mxGraphModel>
  </diagram>
</mxfile>
